<svg xmlns="http://www.w3.org/2000/svg">
<metadata>Created by FontForge 20110222 at Tue Oct4 16:35:53 2011
Modified by fontgen.py at Tue Oct4 16:35:53 2011
</metadata>
<defs>
<font id="webfont" horiz-adv-x="568"><font-face units-per-em="1000" ascent="800" descent="-200"/>
<missing-glyph horiz-adv-x="500"/><glyph unicode=" " horiz-adv-x="193"/><glyph unicode="&#160;" horiz-adv-x="193"/><glyph unicode="A" horiz-adv-x="630" d="M443 692l161 -692h-106l-39 179h-283l-96 -179h-100l380 692h83zM216 262h229l-66 306z"/><glyph unicode="B" horiz-adv-x="569" d="M546 551c0 -79 -50 -162 -128 -186c71 -16 123 -61 123 -138c0 -156 -134 -227 -273 -227h-216l110 690h179c96 0 205 -18 205 -139zM443 224c0 83 -81 95 -147 95h-98l-38 -239h105c93 0 178 36 178 144zM448 528c0 72 -62 83 -120 83h-84l-34 -216h77 c87 0 161 33 161 133z"/><glyph unicode="C" horiz-adv-x="645" d="M687 608l-53 -79c-34 56 -117 84 -179 84c-174 0 -292 -154 -292 -320c0 -127 79 -214 208 -214c78 0 154 30 211 84l30 -72c-71 -69 -161 -103 -259 -103c-174 0 -290 113 -290 287c0 226 166 425 402 425c82 0 169 -26 222 -92z"/><glyph unicode="D" horiz-adv-x="665" d="M664 409c0 -233 -176 -409 -412 -409h-200l110 690h200c173 0 302 -100 302 -281zM566 395c0 133 -87 210 -217 210h-106l-82 -519h106c173 0 299 138 299 309z"/><glyph unicode="E" horiz-adv-x="515" d="M162 690h389l-13 -83h-295l-32 -203h279l-14 -83h-278l-38 -237h303l-13 -84h-398z"/><glyph unicode="F" horiz-adv-x="479" d="M162 690h369l-13 -83h-275l-36 -227h258l-13 -83h-258l-47 -297h-95z"/><glyph unicode="G" horiz-adv-x="725" d="M713 579l-74 -62c-45 68 -108 99 -189 99c-176 0 -288 -162 -288 -327c0 -127 79 -214 208 -214c60 0 151 16 195 62l24 152h-178l13 80h271l-43 -269c-88 -76 -184 -112 -301 -112c-172 0 -287 117 -287 289c0 224 165 423 399 423c107 0 188 -33 250 -121z"/><glyph unicode="H" horiz-adv-x="692" d="M607 690h95l-109 -690h-95l51 322h-351l-51 -322h-95l110 690h95l-45 -284h350z"/><glyph unicode="I" horiz-adv-x="242" d="M162 690h95l-110 -690h-95z"/><glyph unicode="J" horiz-adv-x="242" d="M162 690h94l-108 -687c-15 -94 -50 -203 -170 -203c-18 0 -54 4 -71 12l14 77c16 -8 34 -9 51 -9c61 0 73 73 80 119z"/><glyph unicode="K" horiz-adv-x="561" d="M524 690h117l-297 -272l205 -418h-115l-166 345l-78 -71l-43 -274h-95l110 690h94l-46 -292z"/><glyph unicode="L" horiz-adv-x="413" d="M160 85h234l-13 -85h-329l110 690h94z"/><glyph unicode="M" horiz-adv-x="828" d="M690 690h117l-50 -690h-94l43 543h-1l-289 -549h-54l-116 549h-1l-129 -543h-94l170 690h116l107 -531h1z"/><glyph unicode="N" horiz-adv-x="717" d="M634 690h93l-109 -690h-93l-294 546c-27 -182 -56 -364 -85 -546h-94l110 690h99l288 -539c27 180 56 359 85 539z"/><glyph unicode="O" horiz-adv-x="762" d="M760 412c0 -227 -167 -424 -404 -424c-173 0 -293 114 -293 288c0 227 168 424 405 424c173 0 292 -113 292 -288zM662 400c0 126 -80 215 -207 215c-174 0 -293 -157 -293 -322c0 -126 80 -215 208 -215c174 0 292 157 292 322z"/><glyph unicode="P" horiz-adv-x="515" d="M546 531c0 -152 -113 -236 -260 -236h-92l-47 -295h-95l110 690h186c103 0 198 -42 198 -159zM447 515c0 72 -57 94 -119 94h-85l-36 -233h84c86 0 156 46 156 139z"/><glyph unicode="Q" horiz-adv-x="762" d="M760 412c0 -126 -51 -243 -138 -322l60 -88l-71 -52l-60 89c-57 -33 -123 -51 -195 -51c-173 0 -293 114 -293 288c0 227 168 424 405 424c173 0 292 -113 292 -288zM662 400c0 126 -80 215 -207 215c-174 0 -293 -157 -293 -322c0 -126 80 -215 208 -215 c48 0 93 12 131 34l-46 67l71 52l45 -66c58 61 91 147 91 235z"/><glyph unicode="R" horiz-adv-x="524" d="M546 531c0 -117 -69 -202 -182 -224l140 -307h-115l-126 297h-69l-47 -297h-95l110 690h188c103 0 196 -43 196 -159zM448 518c0 77 -67 91 -130 91h-75l-36 -231h74c91 0 167 36 167 140z"/><glyph unicode="S" horiz-adv-x="518" d="M542 611l-56 -64c-36 43 -79 71 -138 71c-68 0 -130 -40 -130 -114c0 -128 274 -95 274 -282c0 -140 -128 -234 -264 -234c-91 0 -152 45 -200 118l62 63c31 -56 92 -97 157 -97c74 0 147 50 147 130c0 130 -274 95 -274 277c0 136 114 221 247 221c69 0 133 -35 175 -89 z"/><glyph unicode="T" horiz-adv-x="486" d="M96 690h468l-13 -83h-187l-96 -607h-95l96 607h-187z"/><glyph unicode="U" horiz-adv-x="647" d="M567 690h96l-65 -408c-27 -172 -109 -294 -299 -294c-127 0 -216 65 -216 198c0 32 4 64 9 96l65 408h95l-63 -399c-5 -28 -9 -56 -9 -85c0 -82 51 -130 133 -130c133 0 173 102 191 215z"/><glyph unicode="V" horiz-adv-x="578" d="M562 690h100l-354 -691h-84l-135 691h102l99 -546z"/><glyph unicode="W" horiz-adv-x="921" d="M897 690h100l-306 -691h-93l-75 554l-250 -554h-93l-87 691h100l62 -540l242 540h96l71 -540z"/><glyph unicode="X" horiz-adv-x="562" d="M521 690h112l-257 -334l163 -356h-114l-121 291l-213 -291h-114l276 356l-151 334h112l111 -268z"/><glyph unicode="Y" horiz-adv-x="558" d="M537 690h107l-295 -401l-45 -289h-96l46 289l-168 401h108l121 -315z"/><glyph unicode="Z" horiz-adv-x="549" d="M127 690h476l-11 -67l-452 -538h374l-13 -85h-493l12 75l445 531h-351z"/><glyph unicode="a" horiz-adv-x="579" d="M497 70c0 0 -2 -17 -2 -37c0 -21 3 -33 3 -33h-91s-3 11 -3 32c0 11 1 29 5 45c-43 -53 -107 -88 -176 -88c-119 0 -188 83 -188 199c0 150 99 297 264 297c63 0 118 -26 147 -83l12 74h93zM437 275c0 75 -42 130 -121 130c-108 0 -174 -102 -174 -202 c0 -75 43 -131 121 -131c109 0 174 103 174 203z"/><glyph unicode="b" horiz-adv-x="579" d="M58 71l86 541c8 50 25 78 25 78h92s-16 -29 -23 -73l-34 -215h1c43 52 104 83 172 83c118 0 186 -82 186 -197c0 -150 -101 -299 -266 -299c-64 0 -119 27 -147 86h-1c-8 -48 -24 -75 -24 -75h-90s16 29 23 71zM466 275c0 75 -42 130 -121 130 c-108 0 -173 -102 -173 -202c0 -75 42 -131 121 -131c108 0 173 103 173 203z"/><glyph unicode="c" horiz-adv-x="461" d="M487 416l-44 -71c-28 42 -76 60 -125 60c-105 0 -176 -102 -176 -200c0 -77 46 -133 126 -133c50 0 112 21 149 55l17 -73c-47 -43 -125 -65 -192 -65c-119 0 -197 87 -197 203c0 152 117 292 279 292c60 0 129 -21 163 -68z"/><glyph unicode="d" horiz-adv-x="579" d="M408 75h-1c-43 -54 -107 -86 -174 -86c-119 0 -188 83 -188 199c0 150 99 297 264 297c63 0 118 -26 147 -83l34 217c2 15 3 27 3 38c0 21 -3 33 -3 33h94s3 -11 3 -32c0 -12 -1 -28 -4 -46l-86 -542c-2 -13 -2 -26 -2 -37c0 -21 3 -33 3 -33h-91s-3 11 -3 32 c0 10 0 26 4 43zM437 275c0 75 -42 130 -121 130c-108 0 -174 -102 -174 -202c0 -75 43 -131 121 -131c109 0 174 103 174 203z"/><glyph unicode="e" horiz-adv-x="523" d="M509 357c0 -34 -38 -154 -256 -154c-33 0 -71 3 -113 9c0 0 -1 -8 -1 -18c0 -79 47 -128 126 -128c61 0 111 23 162 55l30 -57c-59 -51 -138 -75 -215 -75c-121 0 -197 77 -197 198c0 160 131 298 302 298c97 0 162 -53 162 -128zM420 357c0 31 -31 59 -85 59 c-89 0 -159 -58 -183 -136c24 -4 51 -6 79 -6c92 0 189 23 189 83z"/><glyph unicode="f" horiz-adv-x="265" d="M41 -113l81 509h-65l13 79h65c16 106 42 226 177 226c22 0 58 -2 78 -11l-17 -73c-16 6 -34 9 -51 9c-83 0 -84 -91 -94 -151h109l-12 -79h-109l-81 -504c-8 -50 -24 -78 -24 -78h-93s16 29 23 73z"/><glyph unicode="g" horiz-adv-x="575" d="M550 403l-48 -303c-27 -171 -105 -296 -300 -296c-71 0 -141 25 -194 72l53 66c36 -37 103 -60 154 -60c135 0 175 92 192 208h-1c-42 -54 -104 -84 -173 -84c-113 0 -187 79 -187 191c0 148 104 287 263 287c62 0 120 -26 147 -84h1c8 48 25 76 25 76h91 s-16 -29 -23 -73zM438 279c0 75 -45 126 -122 126c-106 0 -172 -94 -172 -194c0 -76 44 -126 121 -126c106 0 173 94 173 194z"/><glyph unicode="h" horiz-adv-x="532" d="M238 612l-34 -211c35 50 92 84 154 84c93 0 138 -44 138 -136c0 -22 -2 -44 -6 -66l-34 -213c-2 -13 -2 -26 -2 -37c0 -21 3 -33 3 -33h-94s-3 11 -3 32c0 12 1 28 4 45l30 192c3 17 5 35 5 52c0 53 -22 82 -77 82c-92 0 -132 -89 -144 -168l-37 -235h-94l98 619 c2 15 3 27 3 38c0 21 -3 33 -3 33h94s3 -11 3 -32c0 -12 -1 -28 -4 -46z"/><glyph unicode="i" horiz-adv-x="228" d="M254 640c0 -38 -32 -70 -71 -70c-29 0 -52 19 -52 50c0 38 33 70 71 70c30 0 52 -19 52 -50zM151 70c-2 -13 -2 -26 -2 -37c0 -21 3 -33 3 -33h-95s-3 11 -3 32c0 12 1 28 4 45l53 328c2 15 3 27 3 38c0 21 -3 33 -3 33h93s3 -11 3 -32c0 -12 -1 -28 -4 -46z"/><glyph unicode="j" horiz-adv-x="228" d="M204 404l-64 -405c-16 -98 -55 -195 -175 -195c-18 0 -42 1 -58 8l13 78c14 -5 29 -7 43 -7c65 0 76 69 84 119l63 397c8 50 25 78 25 78h92s-16 -29 -23 -73zM254 640c0 -39 -32 -70 -71 -70c-29 0 -52 19 -52 49c0 39 33 71 71 71c30 0 52 -19 52 -50z"/><glyph unicode="k" horiz-adv-x="473" d="M237 612l-51 -324l215 188h110l-208 -180l155 -296h-110l-120 229l-59 -51l-28 -178h-94l98 619c2 15 3 27 3 38c0 21 -3 33 -3 33h93s3 -11 3 -32c0 -12 -1 -28 -4 -46z"/><glyph unicode="l" horiz-adv-x="230" d="M152 70c-2 -13 -2 -26 -2 -37c0 -21 3 -33 3 -33h-95s-3 11 -3 32c0 12 1 28 4 45l86 542c2 15 3 27 3 38c0 21 -3 33 -3 33h94s3 -11 3 -32c0 -12 -1 -28 -4 -46z"/><glyph unicode="m" horiz-adv-x="791" d="M716 70c-2 -13 -3 -26 -3 -37c0 -21 3 -33 3 -33h-94s-3 11 -3 32c0 12 1 28 4 45l32 200c3 15 5 31 5 46c0 45 -16 80 -67 80c-81 0 -122 -87 -133 -156l-39 -247h-94l44 277c2 15 4 31 4 47c0 45 -16 79 -66 79c-82 0 -123 -87 -134 -156l-39 -247h-93l64 405 c2 15 3 27 3 38c0 21 -3 33 -3 33h92s3 -11 3 -32c0 -12 -1 -27 -4 -44h2c31 48 88 84 145 84c63 0 109 -28 121 -92c37 54 93 92 160 92c90 0 130 -51 130 -137c0 -20 -2 -40 -5 -59z"/><glyph unicode="n" horiz-adv-x="524" d="M452 70c-2 -13 -2 -26 -2 -37c0 -21 3 -33 3 -33h-95s-3 11 -3 32c0 12 1 28 4 45l30 188c3 19 5 37 5 56c0 54 -22 82 -78 82c-91 0 -129 -86 -142 -164l-38 -239h-93l64 405c2 15 3 27 3 38c0 21 -3 33 -3 33h93s3 -11 3 -32c0 -12 -1 -27 -4 -44h1c35 51 92 84 154 84 c93 0 137 -46 137 -138c0 -21 -2 -43 -6 -65z"/><glyph unicode="o" horiz-adv-x="554" d="M538 281c0 -158 -120 -292 -285 -292c-121 0 -208 79 -208 202c0 158 120 293 286 293c121 0 207 -80 207 -203zM442 273c0 76 -45 132 -124 132c-106 0 -176 -101 -176 -200c0 -76 45 -133 124 -133c106 0 176 101 176 201z"/><glyph unicode="p" horiz-adv-x="578" d="M121 -116c-2 -13 -2 -26 -2 -37c0 -21 3 -33 3 -33h-93s-3 11 -3 32c0 12 1 28 4 45l81 514c2 15 3 27 3 38c0 21 -3 33 -3 33h90s3 -11 3 -32c0 -12 -1 -27 -4 -44h1c45 53 105 84 175 84c118 0 187 -82 187 -196c0 -151 -101 -299 -267 -299c-63 0 -117 25 -144 84z M466 275c0 75 -43 130 -121 130c-109 0 -174 -103 -174 -203c0 -75 42 -130 121 -130c108 0 174 103 174 203z"/><glyph unicode="q" horiz-adv-x="574" d="M468 -116c-2 -13 -2 -26 -2 -37c0 -21 3 -33 3 -33h-94s-3 11 -3 32c0 12 1 28 4 45l29 183h-1c-43 -54 -103 -85 -171 -85c-119 0 -188 83 -188 198c0 150 100 297 264 297c65 0 118 -26 150 -84h1c8 48 25 76 25 76h87s-15 -21 -20 -55zM437 275c0 75 -43 130 -121 130 c-109 0 -174 -103 -174 -203c0 -75 43 -130 121 -130c109 0 174 103 174 203z"/><glyph unicode="r" horiz-adv-x="325" d="M374 476l-20 -90h-5c-15 8 -32 9 -48 9c-82 0 -116 -91 -127 -157l-38 -238h-93l64 406c2 13 2 26 2 37c0 21 -3 33 -3 33h94s3 -11 3 -32c0 -12 -1 -26 -4 -42h1c27 47 71 82 127 82c15 0 34 -1 47 -8z"/><glyph unicode="s" horiz-adv-x="402" d="M404 418l-50 -54c-26 30 -63 49 -103 49c-41 0 -84 -19 -84 -66c0 -75 208 -53 208 -187c0 -107 -96 -171 -199 -171c-66 0 -131 28 -166 86l53 55c25 -41 78 -66 125 -66c46 0 98 22 98 76c0 86 -206 56 -206 185c0 96 82 159 177 159c61 0 108 -18 147 -66z"/><glyph unicode="t" horiz-adv-x="302" d="M240 538l-10 -63h109l-12 -79h-110c-12 -76 -40 -191 -40 -270c0 -34 6 -53 42 -53c17 0 40 4 55 11l-7 -79c-26 -10 -59 -16 -87 -16c-72 0 -100 38 -100 103c0 98 29 212 43 304h-67l13 79h67l11 70c2 15 3 27 3 38c0 21 -3 33 -3 33h94s3 -11 3 -32 c0 -12 -1 -28 -4 -46z"/><glyph unicode="u" horiz-adv-x="520" d="M195 397l-32 -202c-2 -15 -4 -30 -4 -45c0 -52 24 -79 78 -79c84 0 124 77 136 150l41 254h93l-64 -405c-2 -13 -2 -26 -2 -37c0 -21 3 -33 3 -33h-92s-3 11 -3 32c0 9 0 20 2 33c-36 -48 -94 -76 -153 -76c-90 0 -135 45 -135 135c0 22 2 45 6 67l34 213c2 15 3 27 3 38 c0 21 -3 33 -3 33h93s3 -11 3 -32c0 -12 -1 -28 -4 -46z"/><glyph unicode="v" horiz-adv-x="468" d="M422 476h97l-267 -476h-81l-116 476h98l78 -355z"/><glyph unicode="w" horiz-adv-x="738" d="M682 476h96l-227 -476h-86l-64 352l-176 -352h-85l-76 476h95l49 -356l176 356h74l63 -356z"/><glyph unicode="x" horiz-adv-x="481" d="M409 476h105l-201 -226l147 -250h-107l-104 192l-165 -192h-107l226 250l-130 226h105l89 -170z"/><glyph unicode="y" horiz-adv-x="464" d="M422 475h97l-309 -558c-30 -54 -70 -110 -139 -110c-25 0 -61 6 -84 18l31 79c14 -7 31 -12 46 -12c57 0 79 77 100 119l-109 464h98l76 -366z"/><glyph unicode="z" horiz-adv-x="442" d="M88 474h372l-9 -59l-318 -334h278l-12 -81h-400l10 60l319 336h-253z"/><glyph unicode="&#223;" horiz-adv-x="542" d="M29 -113l89 560c23 144 65 253 237 253c80 0 155 -42 155 -130c0 -89 -48 -148 -114 -163v-1c80 -12 125 -84 125 -161c0 -154 -120 -252 -272 -252c-19 0 -37 2 -55 6l18 77c14 -4 30 -5 45 -5c99 0 170 72 170 171c0 103 -81 116 -164 116l11 75c80 0 148 26 148 119 c0 49 -40 76 -86 76c-85 0 -107 -66 -118 -137l-95 -599c-8 -50 -24 -78 -24 -78h-93s16 29 23 73z"/><glyph unicode="&#193;" horiz-adv-x="630" d="M480 888h93l-131 -147h-72zM443 692l161 -692h-106l-39 180h-283l-96 -180h-100l380 692h83zM216 262h229l-66 306z"/><glyph unicode="&#225;" horiz-adv-x="579" d="M497 70c0 0 -2 -17 -2 -37c0 -21 3 -33 3 -33h-91s-3 11 -3 32c0 11 1 29 5 45c-43 -53 -107 -88 -176 -88c-119 0 -188 83 -188 199c0 150 99 297 264 297c63 0 118 -26 147 -83l12 74h93zM437 275c0 75 -42 130 -121 130c-108 0 -174 -102 -174 -202 c0 -75 43 -131 121 -131c109 0 174 103 174 203zM366 690h93l-130 -145h-72z"/><glyph unicode="&#196;" horiz-adv-x="630" d="M546 820c0 -33 -27 -65 -61 -65c-26 0 -44 19 -44 44c0 34 27 65 61 65c26 0 44 -18 44 -44zM399 820c0 -33 -26 -65 -61 -65c-26 0 -43 19 -43 44c0 34 26 65 61 65c26 0 43 -18 43 -44zM443 692l161 -692h-106l-39 180h-283l-96 -180h-100l380 692h83zM216 262h229 l-66 306z"/><glyph unicode="&#228;" horiz-adv-x="579" d="M497 70c0 0 -2 -17 -2 -37c0 -21 3 -33 3 -33h-91s-3 11 -3 32c0 11 1 29 5 45c-43 -53 -107 -88 -176 -88c-119 0 -188 83 -188 199c0 150 99 297 264 297c63 0 118 -26 147 -83l12 74h93zM437 275c0 75 -42 130 -121 130c-108 0 -174 -102 -174 -202 c0 -75 43 -131 121 -131c109 0 174 103 174 203zM439 627c0 -33 -27 -63 -61 -63c-26 0 -44 18 -44 44c0 33 27 63 61 63c26 0 44 -18 44 -44zM291 627c0 -33 -27 -63 -61 -63c-25 0 -43 18 -43 44c0 33 26 63 60 63c26 0 44 -18 44 -44z"/><glyph unicode="&#192;" horiz-adv-x="630" d="M385 888l63 -147h-72l-83 147h92zM443 692l161 -692h-106l-39 180h-283l-96 -180h-100l380 692h83zM216 262h229l-66 306z"/><glyph unicode="&#224;" horiz-adv-x="579" d="M497 70c0 0 -2 -17 -2 -37c0 -21 3 -33 3 -33h-91s-3 11 -3 32c0 11 1 29 5 45c-43 -53 -107 -88 -176 -88c-119 0 -188 83 -188 199c0 150 99 297 264 297c63 0 118 -26 147 -83l12 74h93zM437 275c0 75 -42 130 -121 130c-108 0 -174 -102 -174 -202 c0 -75 43 -131 121 -131c109 0 174 103 174 203zM284 690l63 -145h-71l-84 145h92z"/><glyph unicode="&#195;" horiz-adv-x="630" d="M533 863l45 -10c-11 -47 -53 -94 -104 -94c-59 0 -79 47 -117 47c-24 0 -41 -22 -48 -43l-46 10c11 48 53 94 105 94c58 0 79 -46 117 -46c24 0 41 22 48 42zM443 692l161 -692h-106l-39 180h-283l-96 -180h-100l380 692h83zM216 262h229l-66 306z"/><glyph unicode="&#227;" horiz-adv-x="579" d="M497 70c0 0 -2 -17 -2 -37c0 -21 3 -33 3 -33h-91s-3 11 -3 32c0 11 1 29 5 45c-43 -53 -107 -88 -176 -88c-119 0 -188 83 -188 199c0 150 99 297 264 297c63 0 118 -26 147 -83l12 74h93zM437 275c0 75 -42 130 -121 130c-108 0 -174 -102 -174 -202 c0 -75 43 -131 121 -131c109 0 174 103 174 203zM436 670l45 -11c-10 -47 -52 -92 -104 -92c-58 0 -79 46 -117 46c-24 0 -41 -21 -48 -42l-45 10c11 48 53 93 104 93c58 0 79 -46 117 -46c24 0 41 21 48 42z"/><glyph unicode="&#194;" horiz-adv-x="630" d="M471 888l65 -147h-69l-42 97l-73 -97h-70l112 147h77zM443 692l161 -692h-106l-39 180h-283l-96 -180h-100l380 692h83zM216 262h229l-66 306z"/><glyph unicode="&#226;" horiz-adv-x="579" d="M497 70c0 0 -2 -17 -2 -37c0 -21 3 -33 3 -33h-91s-3 11 -3 32c0 11 1 29 5 45c-43 -53 -107 -88 -176 -88c-119 0 -188 83 -188 199c0 150 99 297 264 297c63 0 118 -26 147 -83l12 74h93zM437 275c0 75 -42 130 -121 130c-108 0 -174 -102 -174 -202 c0 -75 43 -131 121 -131c109 0 174 103 174 203zM365 690l66 -145h-69l-42 98l-74 -98h-69l112 145h76z"/><glyph unicode="&#197;" horiz-adv-x="630" d="M520 838c0 -62 -52 -113 -113 -113c-47 0 -83 31 -83 80c0 61 52 112 113 112c47 0 83 -31 83 -79zM443 692l161 -692h-106l-39 180h-283l-96 -180h-100l380 692h83zM472 830c0 25 -17 42 -42 42c-32 0 -58 -29 -58 -60c0 -25 17 -42 42 -42c32 0 58 29 58 60zM216 262 h229l-66 306z"/><glyph unicode="&#229;" horiz-adv-x="579" d="M497 70c0 0 -2 -17 -2 -37c0 -21 3 -33 3 -33h-91s-3 11 -3 32c0 11 1 29 5 45c-43 -53 -107 -88 -176 -88c-119 0 -188 83 -188 199c0 150 99 297 264 297c63 0 118 -26 147 -83l12 74h93zM437 275c0 75 -42 130 -121 130c-108 0 -174 -102 -174 -202 c0 -75 43 -131 121 -131c109 0 174 103 174 203zM416 653c0 -61 -53 -111 -113 -111c-47 0 -84 30 -84 79c0 61 53 111 114 111c46 0 83 -31 83 -79zM367 646c0 25 -17 42 -41 42c-32 0 -58 -29 -58 -60c0 -25 17 -42 42 -42c32 0 57 29 57 60z"/><glyph unicode="&#198;" horiz-adv-x="824" d="M448 690h409l-13 -83h-268l-32 -199h252l-14 -83h-251l-38 -241h275l-13 -84h-370l28 181h-229l-128 -181h-106zM426 264l55 345h-1l-242 -345h188z"/><glyph unicode="&#230;" horiz-adv-x="817" d="M803 357c0 -34 -38 -154 -256 -154c-33 0 -71 3 -113 9c0 0 -1 -8 -1 -18c0 -79 47 -128 126 -128c61 0 111 23 162 55l30 -57c-59 -51 -138 -75 -215 -75c-82 0 -143 35 -174 95c-57 -59 -117 -95 -201 -95c-74 0 -138 42 -138 122c0 148 137 180 258 180 c25 0 49 -1 71 -3c2 14 3 25 3 39c0 59 -43 84 -97 84c-48 0 -104 -16 -145 -41l-18 65c54 31 117 49 179 49c63 0 133 -19 153 -87c54 54 129 88 214 88c97 0 162 -53 162 -128zM199 59c50 0 115 36 144 80c-3 15 -4 31 -4 48c0 13 1 25 2 37c-25 3 -51 5 -75 5 c-80 0 -148 -23 -148 -103c0 -47 39 -67 81 -67zM714 357c0 31 -31 59 -85 59c-89 0 -159 -58 -183 -136c24 -4 51 -6 79 -6c92 0 189 23 189 83z"/><glyph unicode="&#199;" horiz-adv-x="645" d="M687 608l-53 -79c-34 56 -117 84 -179 84c-174 0 -292 -154 -292 -320c0 -127 79 -214 208 -214c78 0 154 30 211 84l30 -72c-66 -64 -149 -98 -239 -102l-84 -139h-96l102 142c-141 23 -232 130 -232 283c0 226 166 425 402 425c82 0 169 -26 222 -92z"/><glyph unicode="&#231;" horiz-adv-x="461" d="M487 416l-44 -71c-28 42 -76 60 -125 60c-105 0 -176 -102 -176 -200c0 -77 46 -133 126 -133c50 0 112 21 149 55l17 -73c-39 -35 -98 -56 -155 -62l-95 -137h-93l113 138c-97 16 -159 96 -159 199c0 152 117 292 279 292c60 0 129 -21 163 -68z"/><glyph unicode="&#208;" horiz-adv-x="665" d="M664 409c0 -233 -176 -409 -412 -409h-200l52 324h-63l12 74h62l47 292h200c173 0 302 -100 302 -281zM566 395c0 133 -87 210 -217 210h-106l-33 -207h168l-11 -73h-168l-38 -239h106c173 0 299 138 299 309z"/><glyph unicode="&#240;" horiz-adv-x="554" d="M539 311c0 -171 -101 -322 -289 -322c-119 0 -205 79 -205 200c0 144 118 282 270 282c43 0 87 -12 117 -44c-21 62 -58 117 -103 164l-122 -72l-20 47l106 63c-26 24 -54 47 -83 68l69 44c31 -22 62 -46 89 -72l128 75l21 -48l-112 -65c82 -87 134 -200 134 -320z M440 267c0 74 -46 130 -124 130c-103 0 -174 -96 -174 -194c0 -75 46 -131 123 -131c103 0 175 97 175 195z"/><glyph unicode="&#201;" horiz-adv-x="515" d="M408 888h92l-130 -147h-72zM162 690h389l-13 -82h-295l-32 -204h279l-14 -83h-278l-38 -237h303l-13 -84h-398z"/><glyph unicode="&#233;" horiz-adv-x="523" d="M509 357c0 -34 -38 -154 -256 -154c-33 0 -71 3 -113 9c0 0 -1 -8 -1 -18c0 -79 47 -128 126 -128c61 0 111 23 162 55l30 -57c-59 -51 -138 -75 -215 -75c-121 0 -197 77 -197 198c0 160 131 298 302 298c97 0 162 -53 162 -128zM420 357c0 31 -31 59 -85 59 c-89 0 -159 -58 -183 -136c24 -4 51 -6 79 -6c92 0 189 23 189 83zM344 690h93l-130 -145h-72z"/><glyph unicode="&#202;" horiz-adv-x="515" d="M426 888l65 -147h-69l-42 97l-73 -97h-70l112 147h77zM162 690h389l-13 -82h-295l-32 -204h279l-14 -83h-278l-38 -237h303l-13 -84h-398z"/><glyph unicode="&#234;" horiz-adv-x="523" d="M509 357c0 -34 -38 -154 -256 -154c-33 0 -71 3 -113 9c0 0 -1 -8 -1 -18c0 -79 47 -128 126 -128c61 0 111 23 162 55l30 -57c-59 -51 -138 -75 -215 -75c-121 0 -197 77 -197 198c0 160 131 298 302 298c97 0 162 -53 162 -128zM420 357c0 31 -31 59 -85 59 c-89 0 -159 -58 -183 -136c24 -4 51 -6 79 -6c92 0 189 23 189 83zM370 690l66 -145h-69l-42 98l-74 -98h-69l112 145h76z"/><glyph unicode="&#203;" horiz-adv-x="515" d="M501 820c0 -33 -26 -65 -61 -65c-26 0 -43 19 -43 44c0 34 26 65 61 65c26 0 43 -18 43 -44zM354 820c0 -33 -26 -65 -61 -65c-26 0 -43 19 -43 44c0 34 26 65 61 65c26 0 43 -18 43 -44zM162 690h389l-13 -83h-295l-32 -203h279l-14 -83h-278l-38 -237h303l-13 -84h-398 z"/><glyph unicode="&#235;" horiz-adv-x="523" d="M509 357c0 -34 -38 -154 -256 -154c-33 0 -71 3 -113 9c0 0 -1 -8 -1 -18c0 -79 47 -128 126 -128c61 0 111 23 162 55l30 -57c-59 -51 -138 -75 -215 -75c-121 0 -197 77 -197 198c0 160 131 298 302 298c97 0 162 -53 162 -128zM420 357c0 31 -31 59 -85 59 c-89 0 -159 -58 -183 -136c24 -4 51 -6 79 -6c92 0 189 23 189 83zM430 627c0 -33 -27 -63 -61 -63c-26 0 -44 18 -44 44c0 33 27 63 61 63c26 0 44 -18 44 -44zM282 627c0 -33 -27 -63 -61 -63c-25 0 -43 18 -43 44c0 33 26 63 60 63c26 0 44 -18 44 -44z"/><glyph unicode="&#200;" horiz-adv-x="515" d="M356 888l63 -147h-72l-84 147h93zM162 690h389l-13 -82h-295l-32 -204h279l-14 -83h-278l-38 -237h303l-13 -84h-398z"/><glyph unicode="&#232;" horiz-adv-x="523" d="M509 357c0 -34 -38 -154 -256 -154c-33 0 -71 3 -113 9c0 0 -1 -8 -1 -18c0 -79 47 -128 126 -128c61 0 111 23 162 55l30 -57c-59 -51 -138 -75 -215 -75c-121 0 -197 77 -197 198c0 160 131 298 302 298c97 0 162 -53 162 -128zM420 357c0 31 -31 59 -85 59 c-89 0 -159 -58 -183 -136c24 -4 51 -6 79 -6c92 0 189 23 189 83zM276 690l63 -145h-71l-84 145h92z"/><glyph unicode="&#205;" horiz-adv-x="242" d="M279 888h93l-131 -147h-72zM162 690h95l-110 -690h-95z"/><glyph unicode="&#237;" horiz-adv-x="228" d="M241 690h93l-131 -147h-71zM151 70c-2 -13 -2 -26 -2 -37c0 -21 3 -33 3 -33h-95s-3 11 -3 32c0 12 1 28 4 45l53 328c2 15 3 27 3 38c0 21 -3 33 -3 33h93s3 -11 3 -32c0 -12 -1 -28 -4 -46z"/><glyph unicode="&#206;" horiz-adv-x="242" d="M279 888l65 -147h-69l-42 97l-74 -97h-69l112 147h77zM162 690h95l-110 -690h-95z"/><glyph unicode="&#238;" horiz-adv-x="228" d="M241 690l65 -147h-69l-42 99l-73 -99h-70l112 147h77zM151 70c-2 -13 -2 -26 -2 -37c0 -21 3 -33 3 -33h-95s-3 11 -3 32c0 12 1 28 4 45l53 328c2 15 3 27 3 38c0 21 -3 33 -3 33h93s3 -11 3 -32c0 -12 -1 -28 -4 -46z"/><glyph unicode="&#207;" horiz-adv-x="242" d="M354 824c0 -34 -26 -65 -60 -65c-26 0 -44 19 -44 44c0 34 26 65 61 65c26 0 43 -19 43 -44zM207 824c0 -34 -26 -65 -60 -65c-26 0 -44 19 -44 44c0 34 26 65 61 65c26 0 43 -19 43 -44zM162 690h95l-110 -690h-95z"/><glyph unicode="&#239;" horiz-adv-x="228" d="M316 627c0 -33 -26 -65 -60 -65c-26 0 -44 19 -44 44c0 34 26 65 61 65c26 0 43 -18 43 -44zM170 627c0 -33 -26 -65 -61 -65c-26 0 -43 19 -43 44c0 34 26 65 60 65c26 0 44 -18 44 -44zM151 70c-2 -13 -2 -26 -2 -37c0 -21 3 -33 3 -33h-95s-3 11 -3 32c0 12 1 28 4 45 l53 328c2 15 3 27 3 38c0 21 -3 33 -3 33h93s3 -11 3 -32c0 -12 -1 -28 -4 -46z"/><glyph unicode="&#204;" horiz-adv-x="242" d="M202 888l63 -147h-72l-84 147h93zM162 690h95l-110 -690h-95z"/><glyph unicode="&#236;" horiz-adv-x="228" d="M164 690l63 -147h-72l-84 147h93zM151 70c-2 -13 -2 -26 -2 -37c0 -21 3 -33 3 -33h-95s-3 11 -3 32c0 12 1 28 4 45l53 328c2 15 3 27 3 38c0 21 -3 33 -3 33h93s3 -11 3 -32c0 -12 -1 -28 -4 -46z"/><glyph unicode="&#209;" horiz-adv-x="717" d="M576 863l45 -10c-10 -47 -52 -94 -104 -94c-59 0 -79 47 -117 47c-24 0 -41 -22 -48 -43l-45 10c10 48 52 94 104 94c59 0 79 -46 117 -46c24 0 41 22 48 42zM634 690h93l-109 -690h-93l-294 547c-26 -183 -56 -365 -85 -547h-94l110 690h99l288 -539 c27 180 56 360 85 539z"/><glyph unicode="&#241;" horiz-adv-x="524" d="M449 670l45 -11c-11 -47 -53 -94 -104 -94c-59 0 -79 47 -117 47c-24 0 -41 -22 -48 -43l-46 11c11 47 53 94 105 94c58 0 79 -47 117 -47c24 0 41 22 48 43zM452 70c-2 -13 -2 -26 -2 -37c0 -21 3 -33 3 -33h-95s-3 11 -3 32c0 12 1 28 4 45l30 188c3 19 5 37 5 56 c0 54 -22 82 -78 82c-91 0 -129 -86 -142 -164l-38 -239h-93l64 405c2 15 3 27 3 38c0 21 -3 33 -3 33h93s3 -11 3 -32c0 -12 -1 -27 -4 -44h1c35 51 92 84 154 84c93 0 137 -46 137 -138c0 -21 -2 -43 -6 -65z"/><glyph unicode="&#211;" horiz-adv-x="762" d="M548 888h92l-130 -147h-72zM760 412c0 -227 -167 -424 -404 -424c-173 0 -293 114 -293 288c0 227 168 424 405 424c173 0 292 -113 292 -288zM662 400c0 126 -80 215 -207 215c-174 0 -293 -157 -293 -322c0 -126 80 -215 208 -215c174 0 292 157 292 322z"/><glyph unicode="&#243;" horiz-adv-x="554" d="M397 690h92l-130 -147h-72zM538 281c0 -158 -120 -292 -285 -292c-121 0 -208 79 -208 202c0 158 120 293 286 293c121 0 207 -80 207 -203zM442 273c0 76 -45 132 -124 132c-106 0 -176 -101 -176 -200c0 -76 45 -133 124 -133c106 0 176 101 176 201z"/><glyph unicode="&#212;" horiz-adv-x="762" d="M536 888l66 -147h-70l-42 97l-73 -97h-69l112 147h76zM760 412c0 -227 -167 -424 -404 -424c-173 0 -293 114 -293 288c0 227 168 424 405 424c173 0 292 -113 292 -288zM662 400c0 126 -80 215 -207 215c-174 0 -293 -157 -293 -322c0 -126 80 -215 208 -215 c174 0 292 157 292 322z"/><glyph unicode="&#244;" horiz-adv-x="554" d="M402 690l65 -147h-69l-42 99l-73 -99h-70l112 147h77zM538 281c0 -158 -120 -292 -285 -292c-121 0 -208 79 -208 202c0 158 120 293 286 293c121 0 207 -80 207 -203zM442 273c0 76 -45 132 -124 132c-106 0 -176 -101 -176 -200c0 -76 45 -133 124 -133 c106 0 176 101 176 201z"/><glyph unicode="&#214;" horiz-adv-x="762" d="M611 820c0 -33 -26 -65 -60 -65c-26 0 -44 19 -44 44c0 34 26 65 61 65c26 0 43 -18 43 -44zM464 820c0 -33 -26 -65 -60 -65c-26 0 -44 19 -44 44c0 34 26 65 61 65c26 0 43 -18 43 -44zM760 412c0 -227 -167 -424 -404 -424c-173 0 -293 114 -293 288 c0 227 168 424 405 424c173 0 292 -113 292 -288zM662 400c0 126 -80 215 -207 215c-174 0 -293 -157 -293 -322c0 -126 80 -215 208 -215c174 0 292 157 292 322z"/><glyph unicode="&#246;" horiz-adv-x="554" d="M477 627c0 -33 -26 -65 -61 -65c-25 0 -43 19 -43 44c0 34 26 65 61 65c26 0 43 -18 43 -44zM331 627c0 -33 -26 -65 -61 -65c-26 0 -44 19 -44 44c0 34 27 65 61 65c26 0 44 -18 44 -44zM538 281c0 -158 -120 -292 -285 -292c-121 0 -208 79 -208 202 c0 158 120 293 286 293c121 0 207 -80 207 -203zM442 273c0 76 -45 132 -124 132c-106 0 -176 -101 -176 -200c0 -76 45 -133 124 -133c106 0 176 101 176 201z"/><glyph unicode="&#210;" horiz-adv-x="762" d="M448 888l63 -147h-72l-83 147h92zM760 412c0 -227 -167 -424 -404 -424c-173 0 -293 114 -293 288c0 227 168 424 405 424c173 0 292 -113 292 -288zM662 400c0 126 -80 215 -207 215c-174 0 -293 -157 -293 -322c0 -126 80 -215 208 -215c174 0 292 157 292 322z"/><glyph unicode="&#242;" horiz-adv-x="554" d="M330 690l64 -147h-72l-83 147h91zM538 281c0 -158 -120 -292 -285 -292c-121 0 -208 79 -208 202c0 158 120 293 286 293c121 0 207 -80 207 -203zM442 273c0 76 -45 132 -124 132c-106 0 -176 -101 -176 -200c0 -76 45 -133 124 -133c106 0 176 101 176 201z"/><glyph unicode="&#213;" horiz-adv-x="762" d="M598 863l46 -10c-11 -47 -53 -94 -105 -94c-58 0 -79 47 -117 47c-24 0 -41 -22 -48 -43l-45 10c11 48 53 94 104 94c59 0 79 -46 117 -46c24 0 41 22 48 42zM760 412c0 -227 -167 -424 -404 -424c-173 0 -293 114 -293 288c0 227 168 424 405 424 c173 0 292 -113 292 -288zM662 400c0 126 -80 215 -207 215c-174 0 -293 -157 -293 -322c0 -126 80 -215 208 -215c174 0 292 157 292 322z"/><glyph unicode="&#245;" horiz-adv-x="554" d="M464 670l46 -11c-11 -47 -53 -94 -104 -94c-59 0 -80 47 -118 47c-24 0 -41 -22 -48 -43l-45 11c11 47 53 94 104 94c59 0 79 -47 118 -47c23 0 40 22 47 43zM538 281c0 -158 -120 -292 -285 -292c-121 0 -208 79 -208 202c0 158 120 293 286 293c121 0 207 -80 207 -203 zM442 273c0 76 -45 132 -124 132c-106 0 -176 -101 -176 -200c0 -76 45 -133 124 -133c106 0 176 101 176 201z"/><glyph unicode="&#216;" horiz-adv-x="762" d="M765 706l40 -49l-89 -80c31 -49 44 -107 44 -165c0 -227 -167 -424 -404 -424c-76 0 -152 23 -208 75l-87 -79l-40 49l87 78c-31 49 -45 107 -45 165c0 227 168 424 405 424c76 0 152 -23 208 -75zM187 183l415 376c-39 38 -93 56 -147 56c-174 0 -293 -157 -293 -322 c0 -38 7 -77 25 -110zM662 400c0 37 -6 74 -23 108l-415 -376c39 -37 93 -54 146 -54c174 0 292 157 292 322z"/><glyph unicode="&#248;" horiz-adv-x="554" d="M539 494l36 -43l-66 -58c20 -34 29 -73 29 -112c0 -158 -120 -292 -285 -292c-52 0 -104 15 -144 50l-66 -59l-35 43l66 58c-20 33 -29 72 -29 110c0 158 120 293 286 293c53 0 102 -14 142 -49zM151 150l253 224c-23 22 -55 31 -86 31c-106 0 -176 -101 -176 -200 c0 -19 3 -38 9 -55zM442 273c0 18 -2 36 -8 53l-253 -224c23 -21 54 -30 85 -30c106 0 176 101 176 201z"/><glyph unicode="&#338;" horiz-adv-x="962" d="M636 690h358l-13 -83h-267l-33 -203h251l-13 -83h-251l-37 -238h275l-14 -83h-365l6 36c-54 -33 -118 -48 -181 -48c-172 0 -289 116 -289 288c0 224 166 424 402 424c59 0 116 -12 165 -47zM545 139l65 415c-41 44 -99 61 -159 61c-172 0 -289 -160 -289 -323 c0 -123 78 -214 204 -214c64 0 128 21 179 61z"/><glyph unicode="&#339;" horiz-adv-x="914" d="M900 357c0 -34 -38 -154 -256 -154c-33 0 -71 3 -113 9c0 0 -1 -8 -1 -18c0 -79 47 -128 126 -128c61 0 111 23 162 55l30 -57c-59 -51 -138 -75 -215 -75c-80 0 -141 33 -172 91c-51 -56 -124 -91 -208 -91c-121 0 -208 79 -208 202c0 158 120 293 286 293 c82 0 148 -37 182 -99c54 60 134 100 225 100c97 0 162 -53 162 -128zM442 273c0 76 -45 132 -124 132c-106 0 -176 -101 -176 -200c0 -76 45 -133 124 -133c106 0 176 101 176 201zM811 357c0 31 -31 59 -85 59c-89 0 -159 -58 -183 -136c24 -4 51 -6 79 -6 c92 0 189 23 189 83z"/><glyph unicode="&#222;" horiz-adv-x="511" d="M517 401c0 -152 -113 -236 -260 -236h-84l-26 -165h-95l110 690h95l-21 -130c119 0 281 7 281 -159zM417 385c0 72 -56 95 -119 95h-75l-37 -234h75c86 0 156 47 156 139z"/><glyph unicode="&#254;" horiz-adv-x="579" d="M237 611l-33 -209h1c43 52 104 82 172 82c118 0 186 -81 186 -196c0 -151 -101 -299 -266 -299c-63 0 -117 26 -144 85h-1l-30 -190c-2 -13 -2 -26 -2 -37c0 -21 3 -33 3 -33h-95s-3 11 -3 31c0 12 1 28 4 45l115 728c2 15 3 27 3 38c0 21 -3 33 -3 33h94s3 -11 3 -32 c0 -12 -1 -28 -4 -46zM466 275c0 75 -42 130 -121 130c-108 0 -173 -102 -173 -202c0 -76 42 -131 121 -131c108 0 173 103 173 203z"/><glyph unicode="&#218;" horiz-adv-x="647" d="M473 888h92l-130 -147h-72zM567 690h96l-65 -408c-27 -172 -109 -294 -299 -294c-127 0 -216 65 -216 198c0 32 4 64 9 96l65 408h95l-63 -399c-5 -28 -9 -56 -9 -85c0 -82 51 -129 133 -129c134 0 173 101 191 214z"/><glyph unicode="&#250;" horiz-adv-x="520" d="M382 690h92l-130 -147h-72zM195 397l-32 -202c-2 -15 -4 -30 -4 -45c0 -52 24 -79 78 -79c84 0 124 77 136 150l41 254h93l-64 -405c-2 -13 -2 -26 -2 -37c0 -21 3 -33 3 -33h-92s-3 11 -3 32c0 9 0 20 2 33c-36 -48 -94 -76 -153 -76c-90 0 -135 45 -135 135 c0 22 2 45 6 67l34 213c2 15 3 27 3 38c0 21 -3 33 -3 33h93s3 -11 3 -32c0 -12 -1 -28 -4 -46z"/><glyph unicode="&#219;" horiz-adv-x="647" d="M479 888l66 -147h-70l-42 97l-73 -97h-69l112 147h76zM567 690h96l-65 -408c-27 -172 -109 -294 -299 -294c-127 0 -216 65 -216 198c0 32 4 64 9 96l65 408h95l-63 -399c-5 -28 -9 -56 -9 -85c0 -82 51 -129 133 -129c134 0 173 101 191 214z"/><glyph unicode="&#251;" horiz-adv-x="520" d="M383 690l66 -147h-70l-42 99l-73 -99h-70l112 147h77zM195 397l-32 -202c-2 -15 -4 -30 -4 -45c0 -52 24 -79 78 -79c84 0 124 77 136 150l41 254h93l-64 -405c-2 -13 -2 -26 -2 -37c0 -21 3 -33 3 -33h-92s-3 11 -3 32c0 9 0 20 2 33c-36 -48 -94 -76 -153 -76 c-90 0 -135 45 -135 135c0 22 2 45 6 67l34 213c2 15 3 27 3 38c0 21 -3 33 -3 33h93s3 -11 3 -32c0 -12 -1 -28 -4 -46z"/><glyph unicode="&#220;" horiz-adv-x="647" d="M554 820c0 -33 -26 -65 -60 -65c-26 0 -44 19 -44 44c0 34 26 65 61 65c26 0 43 -18 43 -44zM407 820c0 -33 -26 -65 -60 -65c-26 0 -44 19 -44 44c0 34 26 65 61 65c26 0 43 -18 43 -44zM567 690h96l-65 -408c-27 -172 -109 -294 -299 -294c-127 0 -216 65 -216 198 c0 32 4 64 9 96l65 408h95l-63 -399c-5 -28 -9 -56 -9 -85c0 -82 51 -129 133 -129c134 0 173 101 191 214z"/><glyph unicode="&#252;" horiz-adv-x="520" d="M459 627c0 -33 -27 -65 -61 -65c-26 0 -44 19 -44 44c0 34 26 65 61 65c26 0 44 -18 44 -44zM312 627c0 -33 -26 -65 -61 -65c-26 0 -43 19 -43 44c0 34 26 65 61 65c26 0 43 -18 43 -44zM195 397l-32 -202c-2 -15 -4 -30 -4 -45c0 -52 24 -79 78 -79 c84 0 124 77 136 150l41 254h93l-64 -405c-2 -13 -2 -26 -2 -37c0 -21 3 -33 3 -33h-92s-3 11 -3 32c0 9 0 20 2 33c-36 -48 -94 -76 -153 -76c-90 0 -135 45 -135 135c0 22 2 45 6 67l34 213c2 15 3 27 3 38c0 21 -3 33 -3 33h93s3 -11 3 -32c0 -12 -1 -28 -4 -46z"/><glyph unicode="&#217;" horiz-adv-x="647" d="M409 888l63 -147h-71l-84 147h92zM567 690h96l-65 -408c-27 -172 -109 -294 -299 -294c-127 0 -216 65 -216 198c0 32 4 64 9 96l65 408h95l-63 -399c-5 -28 -9 -56 -9 -85c0 -82 51 -129 133 -129c134 0 173 101 191 214z"/><glyph unicode="&#249;" horiz-adv-x="520" d="M306 690l64 -147h-72l-84 147h92zM195 397l-32 -202c-2 -15 -4 -30 -4 -45c0 -52 24 -79 78 -79c84 0 124 77 136 150l41 254h93l-64 -405c-2 -13 -2 -26 -2 -37c0 -21 3 -33 3 -33h-92s-3 11 -3 32c0 9 0 20 2 33c-36 -48 -94 -76 -153 -76c-90 0 -135 45 -135 135 c0 22 2 45 6 67l34 213c2 15 3 27 3 38c0 21 -3 33 -3 33h93s3 -11 3 -32c0 -12 -1 -28 -4 -46z"/><glyph unicode="&#221;" horiz-adv-x="558" d="M428 888h92l-130 -147h-72zM537 690h107l-295 -401l-45 -289h-96l46 289l-168 401h108l121 -315z"/><glyph unicode="&#253;" horiz-adv-x="464" d="M354 690h92l-130 -147h-72zM422 476h97l-309 -559c-30 -54 -70 -110 -139 -110c-25 0 -61 6 -84 18l31 79c14 -7 31 -12 46 -12c57 0 80 78 101 119l-110 465h98l77 -367z"/><glyph unicode="&#376;" horiz-adv-x="558" d="M511 828c0 -34 -26 -65 -61 -65c-26 0 -43 18 -43 44c0 33 26 65 61 65c26 0 43 -19 43 -44zM364 828c0 -34 -26 -65 -61 -65c-26 0 -43 18 -43 44c0 33 26 65 61 65c26 0 43 -19 43 -44zM537 690h107l-295 -401l-45 -289h-96l46 289l-168 401h108l121 -315z"/><glyph unicode="&#255;" horiz-adv-x="464" d="M436 631c0 -34 -26 -65 -61 -65c-26 0 -44 18 -44 44c0 33 27 65 61 65c26 0 44 -19 44 -44zM289 631c0 -34 -26 -65 -60 -65c-26 0 -44 18 -44 44c0 33 26 65 61 65c26 0 43 -19 43 -44zM422 476h97l-309 -559c-30 -54 -70 -110 -139 -110c-25 0 -61 6 -84 18l31 79 c14 -7 31 -12 46 -12c57 0 80 78 101 119l-110 465h98l77 -367z"/><glyph unicode="0" d="M578 437c0 -185 -93 -448 -318 -448c-154 0 -206 129 -206 262c0 185 93 449 318 449c154 0 206 -129 206 -263zM483 436c0 81 -25 180 -124 180c-157 0 -209 -239 -209 -359c0 -81 24 -181 123 -181c157 0 210 240 210 360z"/><glyph unicode="1" horiz-adv-x="423" d="M148 690h222l-109 -690h-93l98 617h-130z"/><glyph unicode="2" d="M555 533c0 -125 -95 -210 -182 -285l-195 -166h337l-13 -82h-450l-3 66l271 231c64 54 140 125 140 215c0 70 -50 107 -117 107c-75 0 -134 -51 -177 -109l-43 57c48 81 141 133 239 133c105 0 193 -54 193 -167z"/><glyph unicode="3" d="M550 549c0 -100 -52 -154 -135 -185v-1c65 -14 103 -73 103 -137c0 -149 -133 -236 -274 -236c-84 0 -159 44 -198 118l63 57c32 -51 82 -94 146 -94c90 0 169 52 169 150c0 101 -94 101 -168 101l12 78c91 0 187 13 187 130c0 62 -51 91 -108 91 c-67 0 -122 -37 -171 -79l-35 60c57 61 128 98 226 98c92 0 183 -50 183 -151z"/><glyph unicode="4" d="M465 233h96l-13 -82h-96l-24 -151h-92l24 151h-334l11 78l404 465h97zM374 231l55 345l-296 -345h241z"/><glyph unicode="5" d="M243 690h334l-12 -80h-264l-65 -180c30 13 63 18 96 18c109 0 193 -72 193 -185c0 -158 -126 -275 -285 -275c-81 0 -170 36 -201 117l62 57c24 -60 88 -92 150 -92c102 0 180 80 180 181c0 78 -57 122 -131 122c-42 0 -90 -11 -124 -37l-43 30z"/><glyph unicode="6" d="M584 629l-51 -66c-34 39 -84 59 -135 59c-144 0 -205 -174 -224 -291c44 69 114 108 195 108c102 0 174 -73 174 -174c0 -147 -113 -277 -268 -277c-146 0 -202 110 -202 239c0 198 100 473 336 473c68 0 128 -22 175 -71zM448 246c0 72 -43 120 -115 120 c-97 0 -165 -86 -165 -179c0 -71 44 -120 117 -120c98 0 163 87 163 179z"/><glyph unicode="7" d="M597 690l19 -56l-422 -634h-98l409 610h-372l13 80h451z"/><glyph unicode="8" d="M555 550c0 -88 -50 -155 -131 -185v-1c63 -23 99 -73 99 -140c0 -148 -120 -235 -263 -235c-105 0 -200 49 -200 165c0 99 60 180 154 210v1c-53 23 -82 62 -82 121c0 133 111 214 240 214c92 0 183 -48 183 -150zM460 533c0 60 -44 90 -100 90c-77 0 -135 -55 -135 -133 c0 -60 44 -89 100 -89c77 0 135 54 135 132zM430 223c0 69 -52 105 -117 105c-87 0 -157 -63 -157 -153c0 -68 52 -106 116 -106c87 0 158 66 158 154z"/><glyph unicode="9" d="M558 461c0 -193 -99 -473 -332 -473c-69 0 -134 20 -182 71l51 66c34 -39 90 -58 141 -58c143 0 202 174 221 290c-43 -69 -113 -108 -195 -108c-101 0 -173 73 -173 174c0 147 113 277 268 277c146 0 201 -109 201 -239zM464 502c0 71 -44 120 -117 120 c-98 0 -163 -87 -163 -179c0 -72 43 -120 115 -120c97 0 165 86 165 179z"/><glyph unicode="$" d="M558 602l-55 -57c-19 41 -58 70 -103 76l-37 -230c77 -40 149 -71 149 -172c0 -118 -97 -213 -217 -225l-12 -73h-57l12 72c-81 1 -149 48 -176 125l63 53c16 -56 70 -98 130 -99l40 244c-75 39 -145 70 -145 168c0 119 92 202 210 212l11 68h57l-12 -69 c62 -6 115 -36 142 -93zM313 413l34 208c-61 -6 -109 -54 -109 -117c0 -49 38 -70 75 -91zM423 199c0 54 -36 73 -79 96l-36 -224c64 4 115 65 115 128z"/><glyph unicode="&#162;" d="M545 493l-42 -70c-21 30 -70 47 -105 51l-53 -334c40 1 99 24 128 52l17 -70c-33 -34 -107 -62 -158 -63l-14 -89h-59l14 90c-108 12 -177 91 -177 200c0 146 104 276 255 291l14 89h59l-14 -88c39 -3 112 -24 135 -59zM287 144l52 327c-90 -18 -150 -109 -150 -197 c0 -64 33 -116 98 -130z"/><glyph unicode="&#163;" d="M573 617l-52 -57c-23 44 -57 66 -107 66c-86 0 -123 -68 -123 -145c0 -44 12 -88 20 -131h144l-10 -66h-133c0 -72 -16 -145 -60 -205h258l-13 -79h-458l13 79h112c44 59 59 133 59 205h-110l10 66h99c-8 43 -19 88 -19 133c0 124 87 217 217 217c65 0 123 -21 153 -83z "/><glyph unicode="&#165;" d="M531 690h106l-211 -293h116l-11 -66h-152l-25 -39l-5 -33h171l-11 -66h-170l-31 -193h-93l30 193h-171l11 66h171l5 32l-13 40h-152l11 66h115l-118 293h106l112 -310z"/><glyph unicode="&#164;" d="M595 632l-44 -77c-29 45 -73 66 -126 66c-97 0 -152 -89 -178 -172h240l-11 -66h-248c-4 -23 -8 -45 -10 -68h247l-10 -66h-240v-13c-1 -81 32 -163 125 -163c63 0 109 30 153 73l29 -65c-49 -61 -122 -93 -201 -93c-151 0 -205 128 -204 261h-65l11 67h57 c2 22 6 45 10 67h-57l11 66h65c40 128 138 251 286 251c65 0 116 -20 160 -68z"/><glyph unicode="&#8364;" d="M595 632l-44 -77c-29 45 -73 66 -126 66c-97 0 -152 -89 -178 -172h240l-11 -66h-248c-4 -23 -8 -45 -10 -68h247l-10 -66h-240v-13c-1 -81 32 -163 125 -163c63 0 109 30 153 73l29 -65c-49 -61 -122 -93 -201 -93c-151 0 -205 128 -204 261h-65l11 67h57 c2 22 6 45 10 67h-57l11 66h65c40 128 138 251 286 251c65 0 116 -20 160 -68z"/><glyph unicode="#" horiz-adv-x="579" d="M492 504h106l-10 -65h-116l-45 -148h107l-10 -64h-118l-63 -208h-64l64 208h-126l-64 -208h-63l64 208h-103l10 64h113l45 148h-104l10 65h114l65 208h63l-64 -208h126l64 208h64zM363 291l46 148h-127l-45 -148h126z"/><glyph unicode="&#188;" horiz-adv-x="863" d="M729 148h60l-10 -61h-60l-14 -87h-71l14 87h-216l7 46l269 305h67zM647 707l45 -31l-522 -699l-44 30zM153 690h152l-64 -401h-71l55 345h-81zM658 148l32 196l-171 -196h139z"/><glyph unicode="&#189;" horiz-adv-x="864" d="M812 326c0 -110 -148 -204 -218 -263h194l-10 -63h-283l-3 47l161 135c36 31 87 74 87 126c0 38 -29 58 -64 58c-46 0 -82 -35 -108 -69l-32 44c35 55 93 87 158 87c62 0 118 -35 118 -102zM644 707l44 -31l-521 -699l-45 30zM151 690h151l-66 -416h-70l56 360h-80z"/><glyph unicode="&#190;" horiz-adv-x="863" d="M729 148h60l-10 -61h-60l-14 -87h-71l14 87h-216l7 46l269 305h67zM690 707l45 -31l-522 -699l-45 30zM401 631c0 -52 -36 -94 -83 -113c39 -13 62 -46 62 -87c0 -90 -87 -148 -171 -148c-64 0 -118 28 -131 96l53 31c8 -42 42 -66 84 -66c47 0 95 32 95 82 c0 57 -55 61 -97 61l9 57c49 1 109 11 109 76c0 34 -30 49 -61 49c-42 0 -76 -24 -98 -59l-35 35c31 53 85 83 146 83c58 0 118 -32 118 -97zM658 148l32 196l-171 -196h139z"/><glyph unicode="&#185;" horiz-adv-x="367" d="M194 718h151l-68 -430h-71l60 374h-81z"/><glyph unicode="&#178;" horiz-adv-x="367" d="M399 626c0 -78 -65 -130 -118 -176l-113 -99h197l-9 -62h-287l4 53l176 154c33 29 79 67 79 116c0 39 -35 54 -69 54c-52 0 -85 -32 -106 -76l-41 30c20 69 94 108 162 108c63 0 125 -32 125 -102z"/><glyph unicode="&#179;" horiz-adv-x="367" d="M401 631c0 -52 -36 -94 -83 -113c39 -12 62 -46 62 -86c0 -90 -87 -148 -170 -148c-65 0 -119 28 -131 95l52 32c8 -43 42 -66 84 -66c47 0 95 31 95 82c0 56 -55 60 -97 60l9 58c49 0 109 11 109 75c0 34 -30 49 -60 49c-43 0 -77 -24 -99 -59l-35 36 c31 52 85 82 146 82c58 0 118 -32 118 -97z"/><glyph unicode="%" horiz-adv-x="755" d="M410 561c0 -105 -73 -200 -187 -200c-80 0 -133 54 -133 135c0 105 73 199 186 199c81 0 134 -54 134 -134zM646 707l45 -31l-521 -699l-45 30zM726 187c0 -105 -73 -199 -186 -199c-81 0 -134 54 -134 134c0 105 73 200 187 200c80 0 133 -54 133 -135zM340 551 c0 46 -26 80 -74 80c-67 0 -106 -64 -106 -125c0 -46 26 -80 74 -80c66 0 106 64 106 125zM656 178c0 46 -25 80 -74 80c-66 0 -105 -64 -105 -125c0 -46 25 -80 73 -80c67 0 106 64 106 125z"/><glyph unicode="+" horiz-adv-x="667" d="M575 382v-74h-224v-224h-74v224h-225v74h225v224h74v-224h224z"/><glyph unicode="&#215;" horiz-adv-x="667" d="M367 344l200 -200l-52 -54l-201 201l-202 -201l-51 54l200 200l-200 200l51 54l202 -201l201 201l52 -54z"/><glyph unicode="&#247;" horiz-adv-x="667" d="M375 510c0 -34 -27 -62 -61 -62s-62 28 -62 62c0 33 28 61 62 61s61 -28 61 -61zM575 382v-74h-523v74h523zM375 180c0 -34 -27 -61 -61 -61s-62 27 -62 61c0 35 28 62 62 62s61 -28 61 -62z"/><glyph unicode="&#177;" horiz-adv-x="667" d="M575 469v-73h-224v-195h-75v195h-224v73h224v195h75v-195h224zM575 159v-73h-523v73h523z"/><glyph unicode="=" horiz-adv-x="667" d="M575 472v-73h-523v73h523zM575 291v-74h-523v74h523z"/><glyph unicode="&lt;" horiz-adv-x="667" d="M575 161v-81l-523 224v82l523 224v-81l-430 -184z"/><glyph unicode="&gt;" horiz-adv-x="667" d="M575 386v-82l-523 -224v81l430 184l-430 184v81z"/><glyph unicode="&#172;" horiz-adv-x="669" d="M575 466v-299h-74v225h-449v74h523z"/><glyph unicode="&#167;" horiz-adv-x="593" d="M568 593l-58 -45c-19 53 -62 83 -119 83s-107 -36 -107 -97c0 -111 233 -91 233 -254c0 -81 -50 -139 -118 -169c39 -24 60 -69 60 -114c0 -119 -105 -193 -220 -193c-87 0 -156 34 -180 122l67 42c14 -60 66 -92 127 -92c63 0 117 38 117 104c0 120 -246 99 -246 261 c0 79 53 147 122 173c-32 24 -50 64 -50 104c0 111 93 182 203 182c77 0 144 -30 169 -107zM434 260c0 68 -91 96 -142 120c-50 -17 -85 -64 -85 -117c0 -67 92 -95 142 -119c50 18 85 62 85 116z"/><glyph unicode="^" horiz-adv-x="667" d="M355 699l182 -399h-81l-142 317l-143 -317h-81l182 399h83z"/><glyph unicode="~" horiz-adv-x="667" d="M519 369l51 -49c-32 -53 -81 -101 -149 -101c-49 0 -87 21 -119 37c-31 15 -65 34 -98 34c-40 0 -73 -33 -96 -70l-51 49c32 52 82 101 149 101c49 0 88 -21 119 -37s66 -34 98 -34c40 0 73 32 96 70z"/><glyph unicode="*" horiz-adv-x="509" d="M489 623l12 -61l-149 -44l73 -128l-58 -37l-58 135l-101 -135l-46 37l114 128l-135 44l31 61l125 -56l15 143h65l-31 -143z"/><glyph unicode="|" horiz-adv-x="284" d="M157 800v-919h-70v919h70z"/><glyph unicode="&#166;" horiz-adv-x="284" d="M157 800v-313h-70v313h70zM157 312v-312h-70v312h70z"/><glyph unicode="&#8226;" horiz-adv-x="541" d="M401 365c0 -81 -69 -151 -150 -151c-82 0 -151 70 -151 151s69 151 151 151c81 0 150 -70 150 -151z"/><glyph unicode="&#183;" horiz-adv-x="328" d="M253 300c0 -42 -33 -74 -75 -74c-31 0 -55 19 -55 51c0 42 34 74 75 74c31 0 55 -19 55 -51z"/><glyph unicode="." horiz-adv-x="292" d="M198 64c0 -42 -33 -74 -75 -74c-31 0 -56 18 -56 51c0 42 34 74 76 74c31 0 55 -18 55 -51z"/><glyph unicode="," horiz-adv-x="292" d="M122 106h96l-128 -246h-75z"/><glyph unicode=":" horiz-adv-x="292" d="M257 431c0 -42 -34 -75 -76 -75c-32 0 -56 18 -56 51c0 43 34 76 76 76c32 0 56 -19 56 -52zM199 65c0 -42 -34 -75 -76 -75c-31 0 -56 18 -56 51c0 43 34 76 76 76c32 0 56 -19 56 -52z"/><glyph unicode=";" horiz-adv-x="292" d="M257 431c0 -42 -34 -75 -76 -75c-32 0 -56 18 -56 51c0 43 34 76 76 76c32 0 56 -19 56 -52zM122 107h96l-128 -247h-75z"/><glyph unicode="&#8230;" horiz-adv-x="915" d="M797 64c0 -41 -33 -72 -73 -72c-30 0 -53 19 -53 50c0 40 33 71 73 71c30 0 53 -18 53 -49zM505 64c0 -41 -33 -72 -73 -72c-30 0 -54 19 -54 50c0 40 33 71 73 71c30 0 54 -18 54 -49zM212 64c0 -41 -33 -72 -73 -72c-30 0 -53 19 -53 50c0 40 33 71 72 71 c30 0 54 -18 54 -49z"/><glyph unicode="&#176;" horiz-adv-x="412" d="M340 584c0 -88 -70 -152 -154 -152s-154 64 -154 152c0 87 70 151 154 151s154 -64 154 -151zM284 584c0 52 -42 97 -98 97s-97 -45 -97 -97c0 -53 41 -98 97 -98s98 45 98 98z"/><glyph unicode="&amp;" horiz-adv-x="670" d="M585 363l68 -34c-36 -57 -81 -117 -128 -165l114 -156l-2 -8h-111l-66 98c-71 -64 -142 -110 -241 -110c-98 0 -178 52 -178 157c0 133 103 199 210 251c-27 42 -52 78 -52 130c0 109 90 175 196 175c75 0 145 -37 145 -121c0 -95 -86 -160 -162 -200l103 -156 c39 39 76 91 104 139zM453 569c0 42 -30 60 -69 60c-54 0 -94 -41 -94 -95c0 -39 24 -69 45 -100c52 29 118 68 118 135zM417 158l-124 182c-71 -38 -155 -81 -155 -175c0 -62 45 -99 105 -99c65 0 132 45 174 92z"/><glyph unicode="@" horiz-adv-x="776" d="M758 329c0 -138 -111 -329 -268 -329c-41 0 -70 18 -71 61c-37 -32 -83 -61 -133 -61c-65 0 -96 54 -96 113c0 131 114 312 262 312c36 0 79 -13 97 -49l14 30h69c-21 -46 -141 -284 -141 -323c0 -18 11 -24 28 -24c106 0 181 173 181 262c0 137 -107 206 -235 206 c-205 0 -359 -187 -359 -385c0 -146 90 -244 238 -244c100 0 185 29 270 79l16 -42c-94 -63 -186 -92 -299 -92c-175 0 -286 118 -286 291c0 231 186 448 428 448c154 0 285 -88 285 -253zM523 320c-16 35 -42 48 -79 48c-102 0 -186 -147 -186 -238c0 -40 18 -70 60 -70 c115 0 171 186 205 260z"/><glyph unicode="&#182;" horiz-adv-x="583" d="M354 690h258l-11 -71h-49l-128 -805h-71l127 805h-85l-128 -805h-71l73 462c-101 2 -168 59 -168 163c0 154 95 251 253 251z"/><glyph unicode="&#169;" horiz-adv-x="787" d="M730 345c0 -200 -157 -356 -356 -356c-200 0 -356 156 -356 356s156 356 356 356c199 0 356 -156 356 -356zM683 345c0 171 -139 309 -309 309c-171 0 -309 -138 -309 -309s138 -309 309 -309s309 138 309 309zM513 240l31 -44c-21 -25 -73 -63 -155 -63 c-118 0 -209 87 -209 212s91 212 209 212c79 0 129 -33 151 -58l-32 -48c-16 20 -57 50 -117 50c-77 0 -144 -53 -144 -154c0 -100 63 -155 144 -155c53 0 93 20 122 48z"/><glyph unicode="&#174;" horiz-adv-x="787" d="M730 345c0 -200 -157 -356 -356 -356c-200 0 -356 156 -356 356s156 356 356 356c199 0 356 -156 356 -356zM683 345c0 171 -139 309 -309 309c-171 0 -309 -138 -309 -309s138 -309 309 -309c170 0 309 138 309 309zM424 317l111 -178h-77l-99 171h-51v-171h-64v412 l142 -1c68 0 129 -42 129 -119s-53 -106 -91 -114zM449 430c0 55 -42 67 -86 67h-55v-134h55c44 0 86 13 86 67z"/><glyph unicode="&#8482;" horiz-adv-x="850" d="M743 690l31 -398h-65l-22 313h-2l-103 -313h-51l-102 313h-3l-21 -313h-65l31 398h88l97 -299h2l96 299h89zM318 690v-56h-112v-342h-65v342h-112v56h289z"/><glyph unicode="(" horiz-adv-x="275" d="M290 770l55 -33c-114 -143 -193 -365 -193 -546c0 -94 17 -220 58 -305l-65 -34c-51 105 -80 218 -80 335c0 219 90 415 225 583z"/><glyph unicode=")" horiz-adv-x="275" d="M266 436c0 -219 -90 -416 -225 -584l-55 34c114 142 193 364 193 546c0 93 -18 220 -58 305l65 33c51 -104 80 -217 80 -334z"/><glyph unicode="[" horiz-adv-x="275" d="M150 761h183l-9 -58h-102l-124 -785h102l-10 -58h-183z"/><glyph unicode="]" horiz-adv-x="275" d="M148 761h183l-143 -901h-183l9 58h102l124 785h-102z"/><glyph unicode="{" horiz-adv-x="275" d="M294 761h44l-9 -58c-58 0 -86 -1 -96 -66l-31 -199c-10 -62 -25 -107 -90 -126l-1 -3c41 -13 54 -36 54 -79c0 -90 -38 -180 -38 -270c0 -48 42 -42 77 -42l-9 -58h-43c-68 0 -105 22 -105 93c0 89 37 177 37 265c0 34 -15 56 -51 55l12 74c161 0 0 414 249 414z"/><glyph unicode="}" horiz-adv-x="275" d="M298 347l-12 -74c-161 1 -1 -413 -250 -413h-43l9 58c58 0 85 0 96 65l31 199c10 63 25 108 90 127v3c-41 13 -54 36 -54 79c0 90 38 180 38 270c0 47 -42 42 -77 42l10 58h43c67 0 104 -22 104 -93c0 -89 -36 -177 -36 -265c0 -35 15 -56 51 -56z"/><glyph unicode="&#8249;" horiz-adv-x="308" d="M244 436l46 -40l-138 -158l89 -160l-60 -39l-112 199z"/><glyph unicode="&#8250;" horiz-adv-x="308" d="M159 436l112 -198l-175 -199l-46 40l139 159l-90 159z"/><glyph unicode="&#171;" horiz-adv-x="474" d="M404 436l45 -39l-139 -159l89 -160l-58 -39l-113 199zM244 436l45 -39l-139 -159l89 -160l-58 -39l-112 199z"/><glyph unicode="&#187;" horiz-adv-x="474" d="M324 436l112 -198l-175 -199l-46 40l139 159l-89 160zM164 436l112 -198l-175 -199l-46 40l139 159l-89 160z"/><glyph unicode="'" horiz-adv-x="295" d="M190 690h90l-43 -214h-71z"/><glyph unicode="&quot;" horiz-adv-x="433" d="M336 690h90l-44 -214h-70zM181 690h90l-44 -214h-70z"/><glyph unicode="&#8216;" horiz-adv-x="303" d="M248 690h75l-99 -214h-96z"/><glyph unicode="&#8220;" horiz-adv-x="474" d="M419 690h72l-99 -214h-93zM249 690h73l-99 -214h-93z"/><glyph unicode="&#8217;" horiz-adv-x="303" d="M221 690h95l-120 -214h-75z"/><glyph unicode="&#8221;" horiz-adv-x="474" d="M391 690h93l-120 -214h-72zM222 690h93l-120 -214h-72z"/><glyph unicode="&#8218;" horiz-adv-x="303" d="M127 97h95l-119 -213h-76z"/><glyph unicode="&#8222;" horiz-adv-x="474" d="M297 97h93l-119 -213h-73zM128 97h93l-120 -213h-72z"/><glyph unicode="-" horiz-adv-x="283" d="M53 314h235l-13 -80h-235z"/><glyph unicode="&#173;" horiz-adv-x="283" d="M53 314h235l-13 -80h-235z"/><glyph unicode="&#8211;" horiz-adv-x="448" d="M28 311h446l-12 -75h-446z"/><glyph unicode="&#8212;" horiz-adv-x="824" d="M34 311h806l-12 -75h-806z"/><glyph unicode="_" horiz-adv-x="500" d="M500 -38h-500v75h500v-75z"/><glyph unicode="!" horiz-adv-x="292" d="M185 690h98l-89 -507h-81zM199 65c0 -42 -33 -75 -76 -75c-32 0 -55 18 -55 51c0 43 33 76 75 76c32 0 56 -19 56 -52z"/><glyph unicode="&#161;" horiz-adv-x="292" d="M257 434c0 -42 -33 -75 -76 -75c-31 0 -55 18 -55 51c0 43 33 76 76 76c31 0 55 -19 55 -52zM130 292h81l-71 -507h-98z"/><glyph unicode="?" horiz-adv-x="478" d="M486 561c0 -155 -142 -181 -193 -270c-18 -31 -20 -74 -26 -108h-80c7 57 9 115 44 163c50 66 163 105 163 196c0 54 -45 76 -93 76c-55 0 -103 -30 -135 -74l-35 61c45 63 120 95 196 95c85 0 159 -48 159 -139zM272 65c0 -42 -33 -75 -76 -75c-31 0 -55 18 -55 51 c0 43 33 76 75 76c32 0 56 -19 56 -52z"/><glyph unicode="&#191;" horiz-adv-x="478" d="M367 433c0 -42 -33 -75 -76 -75c-31 0 -55 19 -55 51c0 43 33 76 75 76c32 0 56 -19 56 -52zM342 -69l35 -62c-46 -62 -121 -94 -197 -94c-84 0 -158 48 -158 139c0 155 142 181 193 270c18 31 20 73 26 108h80c-8 -57 -9 -115 -45 -163c-49 -67 -163 -106 -163 -197 c0 -54 45 -75 94 -75c55 0 103 30 135 74z"/><glyph unicode="&#170;" horiz-adv-x="341" d="M327 389c0 -66 -19 -136 -29 -201h-68l4 34c-24 -23 -62 -39 -95 -39c-46 0 -88 25 -88 75c0 112 128 104 205 107c1 5 2 11 2 18c0 35 -28 48 -60 48c-27 0 -66 -10 -89 -26l-16 46c35 21 79 33 119 33c64 0 115 -24 115 -95zM240 265l9 57c-38 -1 -124 9 -124 -53 c0 -28 23 -36 47 -36s52 14 68 32z"/><glyph unicode="&#186;" horiz-adv-x="382" d="M375 360c0 -97 -76 -177 -177 -177c-74 0 -129 48 -129 124c0 97 75 177 177 177c74 0 129 -48 129 -124zM304 355c0 41 -25 70 -68 70c-59 0 -96 -54 -96 -109c0 -41 25 -72 68 -72c59 0 96 56 96 111z"/><glyph unicode="&#181;" horiz-adv-x="525" d="M418 474h94l-75 -475h-92l10 62c-32 -38 -89 -69 -138 -69c-27 0 -67 9 -79 36l-33 -214h-92l104 660h94l-43 -268c-2 -16 -4 -32 -4 -49c0 -54 23 -85 79 -85c82 0 122 64 133 138z"/><glyph unicode="&#710;" horiz-adv-x="325" d="M288 690l66 -145h-69l-42 98l-74 -98h-69l112 145h76z"/><glyph unicode="&#732;" horiz-adv-x="325" d="M351 670l45 -11c-10 -47 -52 -92 -104 -92c-58 0 -79 46 -117 46c-24 0 -41 -21 -48 -42l-45 10c11 48 53 93 104 93c58 0 79 -46 117 -46c24 0 41 21 48 42z"/><glyph unicode="&#175;" horiz-adv-x="325" d="M127 627h250l-8 -55h-251z"/><glyph unicode="`" horiz-adv-x="325" d="M253 690l63 -145h-71l-84 145h92z"/><glyph unicode="&#180;" horiz-adv-x="325" d="M247 690h93l-130 -145h-72z"/><glyph unicode="&#168;" horiz-adv-x="325" d="M365 627c0 -33 -27 -63 -61 -63c-26 0 -44 18 -44 44c0 33 27 63 61 63c26 0 44 -18 44 -44zM217 627c0 -33 -27 -63 -61 -63c-25 0 -43 18 -43 44c0 33 26 63 60 63c26 0 44 -18 44 -44z"/><glyph unicode="&#184;" horiz-adv-x="339" d="M164 0h67l-103 -146h-86z"/><glyph unicode="\" horiz-adv-x="501" d="M185 795l270 -800l-64 -29l-270 800z"/><glyph unicode="/" horiz-adv-x="504" d="M525 789l58 -28l-535 -854l-60 29z"/></font>
</defs>
</svg>
